# xmcd database file
#
# Track frame offsets:
# 182
# 44210
# 96260
# 122430
#
# Disc length: 1657 seconds
#
# Revision: 0
# Processed by: cddbd v1.4PL0 Copyright (c) Steve Scherf et al.
# Submitted via: CD-Runner 2002.15
#
DISCID=32067704
DTITLE=Kathy Mattea - Goods News Radio Special
DYEAR=1994
DGENRE=Country
TTITLE0=Christmas With Family
TTITLE1=Choosing Christmas Songs
TTITLE2=A Special Gift Of Song
TTITLE3=Outro
EXTD=
EXTT0=
EXTT1=
EXTT2=
EXTT3=
PLAYORDER=
